PathFileType	4	(X/Y/Z)	s01c0401.trc
DataRate	CameraRate	NumFrames	NumMarkers	Units	OrigDataRate	OrigDataStartFrame	OrigNumFrames
200	200	4	48	mm	200	250	2000
Frame#	Time	racr			lacr			c7			jug			rlel			rdr			llel			ldr			s2			lic			ric			lasi			rasi			rpsi			lpsi			rgt			lgt			rth1			rth2			rth3			rth4			rlfc			rsh1			rsh2			rsh3			rsh4			rlmal			rmmal			rcal			rtoe			rmt5			lth1			lth2			lth4			lth3			llfc			lsh1			lsh2			lsh3			lsh4			llmal			lmmal			lcal			ltoe			lmt5			SBIKE			LBIKE			RBIKE			
		X1	Y1	Z1	X2	Y2	Z2	X3	Y3	Z3	X4	Y4	Z4	X5	Y5	Z5	X6	Y6	Z6	X7	Y7	Z7	X8	Y8	Z8	X9	Y9	Z9	X10	Y10	Z10	X11	Y11	Z11	X12	Y12	Z12	X13	Y13	Z13	X14	Y14	Z14	X15	Y15	Z15	X16	Y16	Z16	X17	Y17	Z17	X18	Y18	Z18	X19	Y19	Z19	X20	Y20	Z20	X21	Y21	Z21	X22	Y22	Z22	X23	Y23	Z23	X24	Y24	Z24	X25	Y25	Z25	X26	Y26	Z26	X27	Y27	Z27	X28	Y28	Z28	X29	Y29	Z29	X30	Y30	Z30	X31	Y31	Z31	X32	Y32	Z32	X33	Y33	Z33	X34	Y34	Z34	X35	Y35	Z35	X36	Y36	Z36	X37	Y37	Z37	X38	Y38	Z38	X39	Y39	Z39	X40	Y40	Z40	X41	Y41	Z41	X42	Y42	Z42	X43	Y43	Z43	X44	Y44	Z44	X45	Y45	Z45	X46	Y46	Z46	X47	Y47	Z47	X48	Y48	Z48	
250	1.2500	479.474842	1365.138840	-127.699903	464.244314	1340.068193	-450.098068	428.493376	1414.959103	-288.619133	462.302080	1261.427237	-280.427011	562.671772	1107.849883	-17.093287	710.222992	894.475456	-60.311032	524.317033	1075.161310	-551.121207	698.660598	896.839440	-466.838387	-70.965963	1145.230597	-258.226992	102.379989	1147.036715	-431.016349	98.864698	1144.488196	-106.829435	102.311259	1094.502239	-409.152213	119.737115	1094.430907	-135.323444	-36.145072	1183.116208	-206.473095	-40.733479	1185.641336	-312.734258	36.948287	1031.626079	-71.370386	41.876579	1016.761019	-457.242660	137.019493	939.873774	-53.547301	204.862392	891.924375	-53.800004	275.055006	834.426943	-63.954872	238.865783	934.499346	-66.886935	329.750956	748.236104	-83.962843	234.035046	681.710553	-56.550908	171.236556	624.666581	-61.976920	99.707814	572.825386	-76.140791	203.144173	590.250064	-100.199665	0.109950	494.588915	-96.587309	41.701695	491.389393	-176.462609	-59.489906	484.659330	-150.190810	176.785803	350.835898	-142.857181	72.235733	369.487999	-70.302287	126.555365	916.883866	-465.847620	205.654761	881.354209	-458.030277	229.742234	930.481841	-453.194583	278.534774	839.422747	-438.513248	357.703685	765.362463	-421.024728	312.676334	656.724761	-450.759915	300.038179	571.222773	-444.164581	284.656522	487.619976	-429.678461	355.304428	565.463797	-417.651568	263.825451	363.438277	-412.013825	272.763565	336.932896	-372.484135	0.000000	0.000000	-0.000000	494.481929	317.730191	-383.378861	389.316057	291.128966	-446.355887	-277.015757	875.193438	-268.340106	-21.504698	80.332308	-453.827580	-21.435192	80.327299	-54.084595	
251	1.2550	479.407130	1365.129569	-127.644514	464.199329	1339.997227	-450.198577	428.260288	1414.937512	-288.685804	461.976922	1261.369981	-279.716412	562.539445	1107.781487	-17.056407	710.172190	894.484142	-60.370476	524.115541	1074.988896	-551.236303	698.555007	896.768825	-466.872195	-70.960989	1145.197179	-258.169043	102.352582	1147.011907	-431.046877	98.848645	1144.533241	-106.856572	102.313418	1094.437512	-409.114500	119.752738	1094.460625	-135.317326	-36.144216	1183.080446	-206.431554	-40.759612	1185.592099	-312.711664	36.972928	1031.625310	-71.347154	41.912026	1016.774269	-457.242111	136.950626	939.779879	-53.570338	204.726181	891.730675	-53.790322	274.905912	834.197248	-63.902346	238.801053	934.293978	-66.844238	329.528948	747.845972	-83.893897	234.060304	681.120229	-56.283260	171.096645	624.153453	-61.943393	99.595185	572.226078	-76.065939	202.987951	589.791916	-100.181151	-0.005340	493.910702	-96.552029	41.620201	490.810121	-176.423542	-59.589427	484.009506	-150.171817	176.705635	350.223769	-142.823740	72.098962	368.906794	-70.305401	126.751815	917.057170	-465.837923	205.885610	881.688822	-458.062478	229.882495	930.758782	-453.137116	278.817953	839.786386	-438.692066	358.079471	765.791496	-421.193812	312.894508	657.204569	-450.861403	300.182430	571.737549	-444.232368	284.739503	488.142046	-429.688050	355.508112	565.907805	-417.715592	263.772141	364.022546	-412.252093	272.802872	337.438639	-372.428720	0.000000	0.000000	-0.000000	494.522932	318.505734	-383.382361	389.401541	291.766842	-446.345957	-276.975477	875.185306	-268.239099	-21.505126	80.330945	-453.819683	-21.429391	80.327021	-54.071309	
252	1.2600	479.354163	1365.135281	-127.620037	464.159589	1339.922048	-450.319854	428.062469	1414.923102	-288.754736	461.940013	1261.497053	-279.661987	562.392885	1107.710514	-17.034663	710.096307	894.455097	-60.437967	523.939516	1074.784359	-551.353473	698.421292	896.647199	-466.863448	-70.933617	1145.145359	-258.093965	102.312018	1146.987003	-431.047003	98.861509	1144.541614	-106.862240	102.300633	1094.395382	-409.088950	119.769021	1094.458813	-135.315175	-36.128111	1183.043573	-206.391357	-40.775400	1185.540266	-312.679066	37.000226	1031.599056	-71.334482	41.938215	1016.792425	-457.252554	136.857269	939.618994	-53.563156	204.563768	891.450071	-53.745208	274.638469	833.786175	-63.854615	238.681297	933.959540	-66.778765	329.237276	747.374895	-83.846822	233.809928	680.603932	-56.180742	170.868775	623.534445	-61.901198	99.404528	571.544583	-76.042771	202.783471	589.164321	-100.116365	-0.194113	493.225392	-96.539161	41.445831	490.066943	-176.387508	-59.733579	483.347361	-150.175794	176.559928	349.443966	-142.805283	71.939341	368.057192	-70.290939	126.971068	917.258713	-465.830570	206.191899	882.056206	-458.129354	230.042635	931.255739	-453.122411	279.176953	840.217647	-438.871352	358.546920	766.336955	-421.338793	313.200332	657.799579	-450.952737	300.409224	572.261982	-444.223413	284.893965	488.789606	-429.697465	355.723439	566.406337	-417.791181	263.758273	364.731869	-412.470623	272.887461	338.090275	-372.347343	0.000000	0.000000	-0.000000	494.675796	319.265498	-383.375681	389.528075	292.517343	-446.334221	-277.041163	875.197536	-268.318583	-21.508793	80.326382	-453.818833	-21.426855	80.323583	-54.085468	
253	1.2650	479.321075	1365.119808	-127.630269	464.140513	1339.858536	-450.405980	427.894040	1414.888042	-288.798698	461.951589	1261.605895	-279.667014	562.237637	1107.643753	-17.019730	710.030490	894.418282	-60.473360	523.756429	1074.604791	-551.490560	698.297672	896.550083	-466.830343	-70.931360	1145.098324	-258.016103	102.303080	1146.972193	-431.037802	98.846456	1144.546273	-106.873554	102.308971	1094.353532	-409.059293	119.792131	1094.427697	-135.327565	-36.105397	1183.010404	-206.346523	-40.789353	1185.485947	-312.637784	37.021017	1031.528018	-71.333773	41.970074	1016.834427	-457.278805	136.749599	939.276960	-53.541768	204.344647	891.012648	-53.716148	274.351032	833.189151	-63.811185	238.527205	933.517276	-66.731312	328.784105	746.726534	-83.804127	233.400806	679.919619	-56.138245	170.457797	622.765881	-61.867964	99.052590	570.762304	-76.014483	202.463307	588.427841	-100.010253	-0.586873	492.268365	-96.596806	41.205416	489.221109	-176.347477	-59.972897	482.380378	-150.148747	176.333731	348.648873	-142.786773	71.710879	367.211249	-70.307528	127.222143	917.492761	-465.832989	206.483313	882.470648	-458.203086	230.235945	931.712479	-453.100374	279.599576	840.779288	-439.049674	359.108296	767.025807	-421.515546	313.598118	658.540245	-451.041115	300.734863	573.049717	-444.235376	285.114409	489.568647	-429.715834	356.049609	567.194752	-417.836373	263.787598	365.568786	-412.665151	273.008872	338.871544	-372.266574	216.675027	328.133205	-369.913718	494.790469	320.255393	-383.352221	389.685183	293.409099	-446.327189	-277.009347	875.187792	-268.213631	-21.512252	80.323503	-453.814066	-21.424625	80.323130	-54.062712	
